<svg width="256" height="256" viewBox="0 0 256 256" shape-rendering="geometricPrecision" version="1.1" xmlns="http://www.w3.org/2000/svg"><desc>Created by https://guilds.gw2w2w.com/</desc><rect x="0" y="0" width="256" height="256" fill="none" stroke="none" /><g >
<g fill="rgb(69,40,99)" stroke="rgb(69,40,99)" stroke-width=".05%" stroke-opacity="50%" opacity="0.7"><path d=" M 91.22 20.07 C 102.82 16.52 114.73 12.89 127.01 13.55 C 143.01 12.82 158.97 16.26 173.74 22.28 C 185.04 28.31 196.45 34.45 206.36 42.63 C 216.81 51.45 224.66 62.90 231.04 74.90 C 237.39 86.42 240.79 99.32 243.08 112.19 C 243.94 121.75 243.79 131.40 243.27 140.98 C 241.83 149.46 239.73 157.84 237.05 166.02 C 229.80 186.52 216.79 205.10 199.39 218.24 C 193.08 222.42 186.69 226.52 179.92 229.95 C 170.48 235.43 159.78 238.15 149.19 240.37 C 142.56 241.83 135.75 241.75 129.01 241.76 C 122.30 241.70 115.48 241.91 108.94 240.16 C 101.22 238.68 93.83 235.98 86.28 233.88 C 81.09 230.91 75.43 228.80 70.43 225.49 C 66.83 223.11 63.13 220.89 59.33 218.85 C 55.58 214.86 51.19 211.52 47.46 207.51 C 42.90 202.37 37.71 197.66 34.53 191.46 C 30.27 184.96 27.00 177.90 22.92 171.29 C 20.25 161.55 16.81 151.97 15.49 141.91 C 14.23 128.54 14.37 114.87 17.73 101.81 C 19.83 93.73 22.05 85.54 26.33 78.29 C 29.92 71.10 34.24 64.32 38.71 57.65 C 51.92 40.22 70.55 27.11 91.22 20.07 M 114.62 19.41 C 113.90 23.35 113.34 27.32 113.00 31.32 C 115.96 30.90 118.92 30.51 121.88 30.13 C 120.23 26.54 118.55 22.96 116.84 19.40 C 116.28 19.40 115.18 19.41 114.62 19.41 M 118.54 18.80 C 121.71 22.85 125.38 26.47 129.24 29.85 C 133.52 26.62 137.37 22.87 140.83 18.79 C 133.41 18.38 125.96 18.25 118.54 18.80 M 138.19 30.12 C 141.13 30.56 144.07 31.00 147.01 31.47 C 146.65 27.08 145.98 22.73 144.88 18.47 C 141.60 21.68 139.94 25.98 138.19 30.12 M 91.07 25.69 C 95.20 28.43 99.55 30.82 104.04 32.92 C 106.93 28.81 109.60 24.54 111.85 20.05 C 104.68 20.88 97.73 22.96 91.07 25.69 M 147.17 20.04 C 149.29 24.61 151.87 28.94 154.84 33.01 C 159.62 31.01 164.23 28.57 168.25 25.26 C 161.35 23.06 154.41 20.82 147.17 20.04 M 87.48 25.55 C 87.34 30.09 87.53 34.63 87.81 39.16 C 90.64 38.17 93.47 37.15 96.30 36.13 C 94.23 31.95 91.42 28.16 87.48 25.55 M 163.23 35.84 C 166.03 37.20 168.83 38.55 171.64 39.89 C 172.35 35.35 172.76 30.76 172.53 26.16 C 168.75 28.67 165.82 32.15 163.23 35.84 M 65.52 39.12 C 70.35 40.99 75.40 42.17 80.52 42.91 C 82.57 37.97 84.06 32.81 84.85 27.52 C 78.09 30.81 71.46 34.46 65.52 39.12 M 174.04 27.59 C 174.68 33.20 176.20 38.67 178.59 43.78 C 183.91 42.84 189.16 41.54 194.27 39.79 C 188.32 34.52 181.16 30.96 174.04 27.59 M 113.45 35.70 C 101.26 38.60 88.44 41.48 78.43 49.46 C 70.32 55.20 63.06 62.08 56.59 69.60 C 49.09 78.50 42.67 88.63 40.01 100.08 C 34.67 116.56 34.03 134.62 38.80 151.32 C 41.15 159.96 43.65 168.82 48.90 176.22 C 53.27 182.38 57.74 188.54 63.25 193.75 C 68.72 199.05 75.03 203.36 81.14 207.86 C 88.87 213.51 98.33 215.77 107.39 218.31 C 128.16 223.87 150.53 220.76 170.01 212.15 C 182.06 205.76 192.58 196.70 201.49 186.44 C 206.52 180.03 211.93 173.66 214.96 166.00 C 219.66 153.22 223.53 139.80 222.79 126.03 C 223.32 114.02 219.70 102.42 215.96 91.17 C 211.22 80.04 203.95 70.04 195.09 61.83 C 184.64 50.40 170.85 41.95 155.79 38.25 C 142.18 33.82 127.49 33.39 113.45 35.70 M 62.84 40.51 C 63.59 44.58 64.87 48.53 66.47 52.35 C 68.77 50.63 71.08 48.92 73.38 47.19 C 70.03 44.72 66.52 42.47 62.84 40.51 M 186.26 46.78 C 186.28 47.21 186.30 48.08 186.31 48.52 C 188.55 49.90 190.80 51.28 193.03 52.68 C 194.61 48.74 196.03 44.72 197.01 40.59 C 193.10 42.03 189.49 44.15 186.26 46.78 M 44.97 58.50 C 49.85 58.65 54.73 58.54 59.60 58.33 C 60.33 53.41 60.55 48.44 60.22 43.48 C 54.67 47.99 49.73 53.18 44.97 58.50 M 198.66 42.91 C 198.51 46.60 198.26 50.31 198.50 54.02 C 198.65 55.48 198.61 57.21 199.94 58.18 C 204.59 58.82 209.30 58.37 213.97 58.32 C 209.21 52.85 204.08 47.72 198.66 42.91 M 41.98 60.97 C 44.10 64.77 46.58 68.33 49.17 71.82 C 50.80 69.41 52.41 66.99 54.04 64.58 C 50.26 62.69 46.21 61.36 41.98 60.97 M 204.95 64.61 C 206.60 66.88 208.23 69.15 209.88 71.42 C 212.26 68.01 214.53 64.52 216.56 60.88 C 212.58 61.74 208.70 63.02 204.95 64.61 M 40.72 63.79 C 36.41 69.95 32.76 76.52 28.99 83.02 C 34.41 82.66 39.62 81.09 44.65 79.14 C 43.89 73.90 42.63 68.74 40.72 63.79 M 214.02 78.32 C 218.90 80.48 224.03 82.06 229.31 82.87 C 226.44 75.78 222.22 69.36 217.95 63.05 C 216.12 67.99 214.80 73.10 214.02 78.32 M 217.09 85.27 C 218.63 87.99 220.19 90.71 221.77 93.41 C 225.20 90.71 228.47 87.79 231.44 84.58 C 226.65 84.06 221.81 84.31 217.09 85.27 M 27.44 84.51 C 29.79 88.54 33.46 91.39 37.20 94.05 C 38.55 91.23 39.88 88.40 41.20 85.57 C 36.63 85.04 32.04 84.56 27.44 84.51 M 231.66 88.52 C 228.74 92.73 226.31 97.26 224.23 101.94 C 228.31 104.79 232.56 107.39 237.04 109.58 C 236.46 102.30 234.43 95.25 231.66 88.52 M 21.16 110.17 C 25.75 108.08 30.09 105.51 34.22 102.62 C 32.46 97.80 30.04 93.26 26.97 89.15 C 24.07 95.86 22.39 102.99 21.16 110.17 M 226.20 109.25 C 226.40 112.26 226.61 115.27 226.82 118.28 C 230.48 116.92 234.10 115.44 237.63 113.77 C 237.67 113.24 237.73 112.17 237.76 111.64 C 233.91 110.80 230.06 110.01 226.20 109.25 M 19.66 112.94 C 23.40 115.30 27.37 117.27 31.44 119.02 C 31.88 116.03 32.34 113.05 32.77 110.07 C 28.29 110.45 23.88 111.39 19.66 112.94 M 228.08 127.07 C 230.18 131.84 234.63 134.94 238.39 138.34 C 238.84 130.90 238.84 123.42 238.32 115.98 C 234.70 119.46 230.55 122.61 228.08 127.07 M 20.48 138.80 C 24.26 135.41 27.77 131.75 31.11 127.93 C 27.92 123.85 24.32 120.12 20.53 116.61 C 19.37 123.96 19.40 131.44 20.48 138.80 M 226.95 135.01 C 226.70 137.99 226.45 140.96 226.19 143.94 C 230.38 143.40 234.56 142.77 238.69 141.88 C 235.81 138.10 231.15 136.74 226.95 135.01 M 19.63 141.42 C 23.80 143.18 28.21 144.24 32.71 144.72 C 32.27 141.61 31.80 138.49 31.35 135.38 C 27.36 137.21 23.39 139.13 19.63 141.42 M 225.28 152.42 C 225.37 157.31 228.82 161.40 231.67 165.11 C 234.71 158.83 236.24 151.93 237.01 145.03 C 232.99 147.29 228.64 149.18 225.28 152.42 M 21.13 145.31 C 22.43 152.42 24.31 159.42 26.87 166.19 C 29.87 162.11 32.39 157.71 34.08 152.93 C 29.89 150.19 25.58 147.62 21.13 145.31 M 28.29 167.33 C 28.23 167.96 28.10 169.21 28.04 169.84 C 32.15 169.74 36.25 169.55 40.35 169.28 C 39.30 166.42 38.25 163.56 37.19 160.71 C 34.16 162.83 31.18 165.02 28.29 167.33 M 217.95 168.50 C 222.58 169.17 227.25 169.61 231.93 169.50 C 229.15 165.75 225.53 162.78 221.73 160.13 C 220.46 162.91 219.21 165.71 217.95 168.50 M 214.18 176.55 C 215.13 181.56 216.42 186.49 218.17 191.28 C 222.88 185.41 226.29 178.67 229.66 171.98 C 224.27 172.62 219.05 174.19 214.18 176.55 M 28.95 172.24 C 31.95 179.16 35.37 186.07 40.54 191.66 C 42.45 186.87 43.64 181.84 44.58 176.78 C 39.49 174.89 34.28 173.30 28.95 172.24 M 41.72 194.83 C 45.98 193.79 50.13 192.37 54.24 190.87 C 52.42 188.34 50.60 185.82 48.79 183.28 C 45.93 186.80 43.48 190.64 41.72 194.83 M 204.93 190.32 C 208.80 192.02 212.86 193.27 217.03 193.97 C 214.93 190.29 212.53 186.80 210.02 183.38 C 208.32 185.69 206.62 188.01 204.93 190.32 M 44.66 196.81 C 48.89 202.54 54.43 207.05 59.78 211.66 C 60.24 206.79 60.13 201.91 59.58 197.06 C 54.62 196.60 49.63 196.49 44.66 196.81 M 198.70 211.57 C 204.27 207.14 209.18 201.98 213.79 196.58 C 208.98 196.45 204.18 196.52 199.37 196.69 C 198.66 201.61 198.45 206.59 198.70 211.57 M 66.51 202.72 C 64.83 206.66 63.56 210.77 62.77 214.99 C 66.47 212.92 69.99 210.54 73.37 207.98 C 71.09 206.21 68.80 204.46 66.51 202.72 M 185.65 207.70 C 189.05 210.47 192.75 212.89 196.87 214.44 C 195.77 210.43 194.34 206.54 192.82 202.68 C 190.44 204.36 188.04 206.02 185.65 207.70 M 65.74 216.33 C 71.60 220.99 78.22 224.57 84.87 227.96 C 83.98 222.94 82.69 218.00 81.10 213.16 C 75.83 213.32 70.69 214.58 65.74 216.33 M 177.97 212.22 C 176.08 217.28 174.60 222.50 174.09 227.91 C 180.62 223.99 187.39 220.45 193.52 215.90 C 188.47 214.16 183.26 212.92 177.97 212.22 M 163.12 219.74 C 165.61 222.64 168.07 225.57 170.49 228.54 C 171.05 228.56 172.17 228.61 172.73 228.63 C 172.64 224.21 172.31 219.81 171.62 215.45 C 168.78 216.86 165.95 218.29 163.12 219.74 M 87.42 229.75 C 91.31 227.22 94.11 223.50 96.71 219.74 C 93.89 218.51 91.07 217.31 88.25 216.11 C 87.54 220.62 87.22 225.18 87.42 229.75 M 91.00 230.03 C 97.80 232.40 104.75 234.38 111.87 235.54 C 109.64 231.14 107.10 226.93 104.42 222.80 C 99.52 224.34 95.07 226.93 91.00 230.03 M 147.05 235.67 C 154.31 234.39 161.45 232.45 168.39 229.94 C 164.21 226.93 159.67 224.48 155.01 222.32 C 151.90 226.48 149.23 230.95 147.05 235.67 M 138.18 225.37 C 139.87 228.87 141.53 232.39 143.20 235.91 C 143.74 235.82 144.82 235.65 145.37 235.56 C 146.08 231.77 146.65 227.95 147.02 224.11 C 144.07 224.52 141.12 224.93 138.18 225.37 M 112.98 224.13 C 113.35 228.02 113.90 231.89 114.55 235.75 C 115.15 235.75 116.36 235.75 116.96 235.75 C 118.58 232.32 120.18 228.90 121.82 225.49 C 118.88 225.02 115.93 224.56 112.98 224.13 M 118.51 236.51 C 125.89 236.89 133.27 236.91 140.64 236.44 C 137.29 232.43 133.47 228.82 129.25 225.73 C 125.36 229.01 121.73 232.57 118.51 236.51 Z" /></g>
</g><g >
<g fill="rgb(55,4,0)" stroke="rgb(55,4,0)" stroke-width=".05%" stroke-opacity="50%"><path d=" M 134.41 121.69 C 140.16 120.69 145.12 123.92 149.62 127.00 C 148.71 132.78 142.14 134.68 140.51 140.13 C 139.73 144.70 139.68 149.38 139.65 154.01 C 140.65 153.78 141.64 153.56 142.64 153.33 C 141.70 151.96 141.04 150.43 140.44 148.89 C 143.76 142.49 151.88 140.79 155.30 134.42 C 155.96 140.20 159.17 145.09 161.78 150.10 C 161.27 155.15 156.03 157.68 152.25 160.24 C 150.47 161.79 146.91 160.92 146.46 163.88 C 146.93 166.81 146.08 170.27 143.34 171.82 C 144.42 172.13 145.51 172.46 146.62 172.71 C 146.66 170.89 146.36 168.98 147.08 167.25 C 147.46 167.30 148.21 167.38 148.59 167.42 C 147.77 170.24 148.43 173.08 148.69 175.91 C 148.39 179.14 147.59 182.32 146.46 185.36 C 147.37 185.89 148.27 186.44 149.17 187.00 C 148.16 188.89 148.04 191.47 149.53 193.16 C 146.43 199.59 143.71 206.21 140.86 212.76 C 138.78 216.58 135.75 219.80 132.92 223.07 C 133.39 220.24 134.42 217.56 135.28 214.83 C 134.75 211.41 136.35 208.26 137.08 205.00 C 138.00 201.39 140.77 198.42 140.98 194.60 C 137.31 197.17 137.29 202.43 135.19 206.13 C 134.57 205.93 133.33 205.53 132.71 205.32 C 131.60 200.29 131.62 195.11 130.89 190.02 C 130.11 188.15 131.96 187.30 133.41 187.01 C 135.18 183.16 138.18 179.47 137.40 174.96 C 137.76 169.66 135.96 163.46 139.71 159.01 C 139.42 157.88 139.15 156.75 138.92 155.61 C 139.05 157.81 137.64 159.39 136.43 161.05 C 135.41 165.55 135.43 170.25 134.05 174.68 C 133.72 175.45 133.24 176.55 132.29 176.63 C 132.31 175.73 132.69 174.98 133.44 174.36 C 133.12 172.22 132.44 170.16 130.82 168.66 C 131.12 173.96 130.16 179.14 128.12 184.03 C 125.64 179.29 124.96 173.96 125.17 168.68 C 123.29 170.35 122.84 172.83 122.34 175.18 C 122.82 175.51 123.77 176.18 124.24 176.51 C 123.44 176.07 122.64 175.64 121.85 175.20 C 120.90 170.50 120.50 165.70 119.55 161.01 C 118.40 159.37 116.88 157.88 117.11 155.69 C 116.86 156.81 116.57 157.92 116.27 159.03 C 120.11 163.48 118.21 169.76 118.59 175.09 C 117.87 179.55 120.84 183.20 122.59 187.01 C 124.04 187.31 125.89 188.16 125.10 190.03 C 124.38 195.13 124.39 200.31 123.29 205.35 C 122.71 205.52 121.54 205.86 120.95 206.03 C 120.68 205.62 120.14 204.80 119.87 204.40 C 118.54 201.18 118.35 196.34 114.83 194.80 C 115.83 199.31 118.91 203.04 119.64 207.65 C 121.11 211.37 120.39 215.52 122.13 219.18 C 123.27 221.05 122.65 223.05 121.46 224.69 C 121.59 224.21 121.84 223.23 121.96 222.74 L 119.78 222.06 C 120.45 221.83 121.12 221.58 121.78 221.33 C 114.38 214.67 112.17 204.68 107.86 196.09 C 105.03 190.74 104.13 184.67 101.89 179.08 C 101.85 178.32 101.81 177.57 101.77 176.82 C 102.56 179.98 103.92 182.95 105.38 185.85 C 105.70 187.54 106.00 189.22 106.35 190.91 C 106.42 189.88 106.56 187.82 106.63 186.79 C 107.73 186.60 108.68 186.06 109.54 185.38 C 108.06 181.12 106.68 176.54 107.76 172.01 C 108.36 168.26 106.37 164.86 105.12 161.48 C 105.92 161.81 107.52 162.48 108.32 162.81 C 108.88 165.97 109.75 169.11 109.63 172.35 C 110.31 172.30 111.68 172.19 112.36 172.13 C 111.86 172.02 110.85 171.80 110.35 171.69 C 109.59 168.88 109.55 165.92 108.88 163.11 C 107.53 161.27 104.99 161.06 103.18 159.82 C 99.48 157.53 94.81 154.89 94.19 150.19 C 96.81 145.15 100.02 140.23 100.69 134.43 C 104.19 140.74 112.22 142.52 115.57 148.89 C 114.95 150.42 114.30 151.95 113.36 153.32 C 114.35 153.56 115.35 153.79 116.34 154.03 C 116.38 149.67 116.14 145.31 115.68 140.98 C 114.55 134.99 107.49 133.00 106.27 127.08 C 110.84 123.99 115.85 120.60 121.68 121.72 C 121.96 126.31 122.27 130.89 122.63 135.47 L 123.45 135.51 C 124.01 138.20 122.57 141.50 124.56 143.75 C 124.19 136.35 123.59 128.95 123.82 121.52 C 126.61 121.41 129.39 121.41 132.18 121.53 C 132.09 126.29 132.34 131.06 131.86 135.81 L 133.30 135.69 C 133.99 131.05 133.50 126.31 134.41 121.69 Z" />
<path d=" M 148.04 166.34 C 146.81 165.45 148.71 161.20 149.83 162.57 C 149.76 164.09 149.16 165.35 148.04 166.34 Z" /></g>
<g fill="rgb(26,24,27)" stroke="rgb(26,24,27)" stroke-width=".05%" stroke-opacity="50%"><path d=" M 109.47 54.95 C 113.40 46.27 120.62 39.69 128.00 33.93 C 134.85 39.32 141.67 45.31 145.64 53.23 C 148.78 61.31 152.95 69.00 158.01 76.04 C 162.60 84.65 166.51 93.62 170.81 102.38 C 172.47 105.31 176.43 107.14 175.92 111.02 C 175.76 113.59 178.02 115.16 180.05 116.16 C 182.05 120.79 184.87 127.34 180.48 131.42 C 175.23 138.22 170.62 145.55 167.40 153.54 C 166.72 155.19 166.62 157.00 166.44 158.76 C 166.16 156.48 165.66 154.23 164.77 152.11 C 166.39 147.37 168.44 142.78 170.14 138.06 C 165.59 132.90 162.18 126.39 155.84 123.13 C 150.74 120.50 145.67 117.48 139.88 116.73 C 133.80 114.79 127.39 115.81 121.13 115.61 C 116.53 116.82 111.60 117.13 107.38 119.48 C 103.09 121.66 98.44 123.47 94.98 126.94 C 91.61 130.37 89.00 134.45 85.86 138.07 C 87.77 143.46 90.20 148.65 91.88 154.13 C 87.97 147.26 82.37 141.60 78.16 134.94 C 76.76 132.64 74.66 130.83 73.37 128.47 C 72.71 122.38 75.43 116.50 78.22 111.25 C 80.49 106.65 85.50 104.03 87.07 99.03 C 92.09 86.66 98.92 75.17 105.85 63.80 C 107.26 60.97 109.82 58.34 109.47 54.95 Z" />
<path d=" M 82.34 145.24 C 85.00 149.19 87.34 153.33 90.20 157.14 C 89.94 159.81 89.62 162.48 89.37 165.15 C 88.38 166.19 87.39 167.22 86.40 168.26 C 89.43 173.60 95.32 176.90 97.27 182.92 C 91.78 177.67 85.36 173.42 80.52 167.51 C 78.53 164.97 74.82 162.88 75.33 159.18 C 75.72 155.55 79.03 153.47 81.57 151.32 C 81.85 149.30 82.10 147.27 82.34 145.24 Z" />
<path d=" M 169.67 170.11 C 166.27 162.82 168.61 154.40 172.98 148.09 C 172.40 151.84 174.28 155.80 178.06 156.93 C 180.44 157.39 180.78 159.98 180.29 161.99 C 178.08 165.16 175.09 167.70 172.61 170.65 C 169.21 174.57 164.36 176.98 161.38 181.29 C 160.42 182.69 159.13 183.82 157.79 184.84 C 159.44 178.36 164.96 174.34 169.67 170.11 Z" /></g>


</g></svg>